<svg xmlns="http://www.w3.org/2000/svg" xmlns:xlink="http://www.w3.org/1999/xlink" viewBox="0 0 275.84 42.23"><defs><style>.cls-1{fill:#a71f39;}.cls-2{fill:#117ec0;}.cls-3{fill:#0e9d39;}.cls-4{fill:url(#linear-gradient);}.cls-5{fill:#fff;stroke:#e8e8e8;stroke-miterlimit:10;stroke-width:0.25px;}.cls-6{font-size:17.52px;fill:#afafaf;font-family:Roboto-Medium, Roboto;font-weight:500;}</style><linearGradient id="linear-gradient" x1="141.48" y1="21.18" x2="154.52" y2="21.18" gradientUnits="userSpaceOnUse"><stop offset="0" stop-opacity="0.15"/><stop offset="1" stop-opacity="0"/></linearGradient></defs><title>qualityze-header-logo</title><g id="Layer_2" data-name="Layer 2"><g id="Layer_1-2" data-name="Layer 1"><path class="cls-1" d="M52.09,21.87c1.15,1.2,2.29,2.34,4.11,2.22.4,0,.79-.12,1.22-.18,0,.48,0,1,0,1.45,0,.08-.15.19-.24.21a5.06,5.06,0,0,1-4.47-1,23.66,23.66,0,0,1-2.1-2,1.49,1.49,0,0,0-1-.52,6.4,6.4,0,0,1-6-6.18,9.43,9.43,0,0,1,.64-4.67,6.13,6.13,0,0,1,5.3-3.83,7,7,0,0,1,3.7.47,6,6,0,0,1,3.37,3.73,9.3,9.3,0,0,1-.29,6.82,5.75,5.75,0,0,1-4,3.4A1.11,1.11,0,0,0,52.09,21.87Zm3.31-7.16c-.11-.74-.16-1.49-.33-2.21a4.45,4.45,0,0,0-2.63-3.31,4.9,4.9,0,0,0-6.6,2.63,7.34,7.34,0,0,0,0,5.83,4.43,4.43,0,0,0,3.83,2.92A4.7,4.7,0,0,0,55,17.27,11,11,0,0,0,55.4,14.71Z"/><path class="cls-1" d="M125.35,19.57c0,.51,0,1,0,1.44,0,.08-.13.18-.21.24a5.4,5.4,0,0,1-2.87.82,7.77,7.77,0,0,1-1.8-.14,3.77,3.77,0,0,1-2.76-2.31,6.76,6.76,0,0,1-.06-5.4,4.56,4.56,0,0,1,5.59-2.67,3.51,3.51,0,0,1,2.23,1.86,7.21,7.21,0,0,1,.58,3.68h-7.24A12.38,12.38,0,0,0,119,18.4a3.14,3.14,0,0,0,3.67,2.31,5.27,5.27,0,0,0,2.43-1Zm-.94-3.85c0-.33,0-.66-.11-1a2.37,2.37,0,0,0-1.88-2,3,3,0,0,0-3.53,2.94Z"/><path class="cls-1" d="M78.53,21.83H76.92v-1.5l-.08,0-.18.27a3.73,3.73,0,0,1-4.84,1.06A2.72,2.72,0,0,1,70.47,19a3.1,3.1,0,0,1,3-3.11c1-.17,2-.3,3.06-.45l.39-.06a2.15,2.15,0,0,0-2.58-2.61,5.21,5.21,0,0,0-2.6,1,.6.6,0,0,1-.13.09l-.1,0c0-.5,0-1,0-1.49,0-.07.1-.15.17-.2a6.23,6.23,0,0,1,4.6-.68,2.91,2.91,0,0,1,2.23,2.7,5.2,5.2,0,0,1,.06.68q0,3.38,0,6.74C78.54,21.7,78.53,21.75,78.53,21.83Zm-1.62-5.17c-.49.07-1,.11-1.39.19-.75.13-1.5.25-2.23.45a1.7,1.7,0,0,0-.84.55,1.78,1.78,0,0,0,1.07,2.82,2.75,2.75,0,0,0,3.22-1.86A6.38,6.38,0,0,0,76.91,16.66Z"/><path class="cls-1" d="M106.69,11.62l-1,2.43c-1.22,3.09-2.43,6.19-3.68,9.26a9.34,9.34,0,0,1-1.08,2,3.1,3.1,0,0,1-3.34,1.28l-.22-.07V25.18a7.49,7.49,0,0,0,1.24.07,1.53,1.53,0,0,0,1.26-.88c.4-.79.74-1.62,1.09-2.44,0-.09,0-.24-.06-.35L97.19,12c0-.11-.08-.21-.13-.36.58,0,1.12,0,1.67,0,.07,0,.18.15.21.25l2,5.55c.33.94.65,1.88,1,2.84a.56.56,0,0,0,0-.08c1-2.72,2-5.44,2.93-8.17.12-.32.27-.44.6-.41S106.25,11.62,106.69,11.62Z"/><path class="cls-1" d="M66.32,11.63h1.59V21.82H66.33V20.23l-.18.2a3.42,3.42,0,0,1-3.58,1.63,3.23,3.23,0,0,1-3-3.32c-.07-1.12-.05-2.26-.06-3.39s0-2.46,0-3.71h1.61V12c0,1.77,0,3.55,0,5.33a7,7,0,0,0,.16,1.58,2.4,2.4,0,0,0,3.84,1.35,3.06,3.06,0,0,0,1.23-2.6c0-1.88,0-3.75,0-5.62Z"/><path class="cls-1" d="M115.81,11.63a2.47,2.47,0,0,1-.25.67q-2.81,3.93-5.65,7.85l-.22.32h6v1.35H107.3a.87.87,0,0,1,.16-.73q2.83-3.89,5.64-7.78c.07-.09.13-.18.22-.32h-5.45V11.63Z"/><path class="cls-1" d="M96.36,11.61V13H93.8c0,.14,0,.25,0,.36,0,1.8,0,3.6,0,5.39a5.81,5.81,0,0,0,0,.72,1.37,1.37,0,0,0,1.79,1.26,6.66,6.66,0,0,0,.74-.22c0,.4,0,.79,0,1.18a.31.31,0,0,1-.19.2,3.5,3.5,0,0,1-2.73-.07,2.23,2.23,0,0,1-1.22-1.88,6.11,6.11,0,0,1-.06-1c0-1.85,0-3.7,0-5.55V13H90.43V11.62h1.73c0-.71,0-1.38,0-2,0-.35.1-.5.43-.57s.77-.23,1.2-.37v3Z"/><path class="cls-1" d="M83.26,21.82H81.68v-15h1.58Z"/><path class="cls-1" d="M88.26,21.82H86.67V11.64h1.59Z"/><path class="cls-1" d="M88.54,7.93a1.06,1.06,0,0,1-2.12,0,1.05,1.05,0,0,1,1-1.07A1,1,0,0,1,88.54,7.93Z"/><path class="cls-2" d="M15.3.69a18,18,0,0,1,4.24.51v.25a4.45,4.45,0,0,0-.36,1.35,10.49,10.49,0,0,0,.53,5.72,17,17,0,0,0,1.8,3.35c.2.28.48.53.69.81.66.88,1.37,1.69,2,2.56.4.52.93,1,1.32,1.49.62.82,1.36,1.52,2,2.33.2.27.5.49.71.76.34.45.78.83,1.11,1.27a8,8,0,0,0,.81.94,17.3,17.3,0,0,1-1.34,2.61c-.12.19-.32.64-.51.73-.15-.24-.41-.41-.58-.63-.29-.39-.65-.71-.94-1.09l-.25-.23c-.73-1-1.68-1.72-2.41-2.68-.18-.25-.44-.44-.63-.69s-.7-.68-1-1.06l-.28-.26a4.65,4.65,0,0,1-.45-.53l-.41-.38a8.19,8.19,0,0,0-.68-.76l-.28-.25a7.11,7.11,0,0,0-.74-.81L19,15.39A12.84,12.84,0,0,0,17.66,14a11.79,11.79,0,0,0-2-1.83,7.46,7.46,0,0,0-5.42-.86,12.74,12.74,0,0,0-1.44.51L8.13,12a10.74,10.74,0,0,0-1.19.56c-.61.38-1.24.73-1.82,1.14-.76.53-1.47,1.12-2.2,1.67S1.53,16.63.79,17.19c-.17.12-.56.63-.71.63s0-.45,0-.66c0-.39,0-.88,0-1.31A13.28,13.28,0,0,1,.94,11,13,13,0,0,1,1.7,9.18c.46-.76.88-1.52,1.39-2.23.23-.32.55-.6.79-.91A6.46,6.46,0,0,1,5.09,4.8l.38-.38c.39-.29.75-.61,1.14-.89a17.9,17.9,0,0,1,3.5-1.85A22.86,22.86,0,0,1,13.58.82c.36-.08.75,0,1.09-.1C14.86.68,15.16.78,15.3.69Z"/><path class="cls-3" d="M20.93,1.63a15.63,15.63,0,0,1,9.22,9A21,21,0,0,1,31,13.39l.1.78A13.27,13.27,0,0,1,31,19c-.09.35-.12.68-.2,1s0,.4-.16.48A4.57,4.57,0,0,0,30.2,20c-.4-.54-.91-1-1.32-1.52l-.38-.38c-.31-.43-.72-.78-1-1.2-1.07-1.4-2.34-2.63-3.4-4-.45-.6-1-1.12-1.47-1.72A12.8,12.8,0,0,1,21.33,8.8a9.7,9.7,0,0,1-.7-6.1A6.4,6.4,0,0,1,20.93,1.63Z"/><path class="cls-1" d="M11.33,12.43a5.63,5.63,0,0,1,3.85,1.16l.83.84a10.47,10.47,0,0,1,1,1l1.87,1.88c.32.32.62.65.94,1a7.6,7.6,0,0,1,.68.71c.23.3.56.51.79.81l.46.43a12.85,12.85,0,0,1,1.11,1.22l.41.38c.39.53.91.94,1.31,1.47l.56.56c.66.87,1.49,1.6,2.15,2.48l.54.53c.69.91,1.59,1.65,2.28,2.56l.25.23c.24.31.55.55.79.86.76,1,1.76,1.82,2.53,2.84.23.3.55.55.78.86.36.48.94.87,1.27,1.37H31.22c-.3-.45-.78-.77-1.09-1.19-.79-1-1.8-1.9-2.59-2.94-.18-.25-.47-.44-.66-.69-.34-.44-.75-.82-1.09-1.26l-.2-.18a2,2,0,0,0-.51-.56,2.35,2.35,0,0,1-.53.41l-.07,0c-.08.05-.27.26-.38.33-.34.21-.7.35-1,.56a11.38,11.38,0,0,1-1.62.73,19.31,19.31,0,0,1-2,.66c-.39.11-.79.14-1.17.23l-1.34.15h-.48a3.73,3.73,0,0,1-1.29,0h-.48c-.24-.05-.56,0-.79-.1-.52-.12-1-.09-1.49-.23A26.05,26.05,0,0,1,9,30.29a12.91,12.91,0,0,1-1.62-.94A15.52,15.52,0,0,1,2.23,24,14.75,14.75,0,0,1,.86,20.94a8.44,8.44,0,0,1-.4-1.5L1,18.86A11.44,11.44,0,0,1,2.18,17.8l.53-.54c.57-.42,1.06-1,1.62-1.36s1-.76,1.52-1.09c.18-.11.36-.17.54-.28s.46-.38.71-.53a11.83,11.83,0,0,1,2.68-1.27l1.12-.25C11,12.44,11.22,12.49,11.33,12.43Z"/><polygon class="cls-4" points="155.91 42.23 141.48 36.13 143.48 0.13 155.91 7.23 155.91 42.23"/><rect class="cls-5" x="141.48" y="0.13" width="2" height="36"/><text class="cls-6" transform="translate(163.9 23.26)">ISO9001:2015</text></g></g></svg>